<?xml version="1.0" encoding="UTF-8"?>
<svg width="3028px" height="1514px" viewBox="0 0 3028 1514" version="1.1" xmlns="http://www.w3.org/2000/svg" xmlns:xlink="http://www.w3.org/1999/xlink">
    <!-- Generator: Sketch 47 (45396) - http://www.bohemiancoding.com/sketch -->
    <title>Bitmap</title>
    <desc>Created with Sketch.</desc>
    <defs>
        <polygon id="path-1" points="0.0662606089 509.556839 509.732524 509.556839 509.732524 0.24021928 0.0662606089 0.24021928"></polygon>
        <linearGradient x1="-408.263352%" y1="-177.42005%" x2="-320.602198%" y2="-133.916907%" id="linearGradient-3">
            <stop stop-color="#FFFFFF" offset="0%"></stop>
            <stop stop-color="#C4C4C4" offset="43.91%"></stop>
            <stop stop-color="#F8F8F8" offset="100%"></stop>
        </linearGradient>
    </defs>
    <g id="Page-1" stroke="none" stroke-width="1" fill="none" fill-rule="evenodd">
        <g id="Bicycle" transform="translate(2889.000000, 764.000000) scale(-1, 1) translate(-2889.000000, -764.000000) translate(2236.000000, 352.000000)">
            <polygon id="Fill-1" fill="#D1D1D1" fill-rule="nonzero" points="1254 488.467732 1251.69466 482.902509 1060.46598 559.537478 1137.09582 368.305358 1131.53297 366 1050.50117 555.409879 969.467026 366 963.906526 368.305358 1040.53636 559.537478 849.30769 482.902509 847 488.467732 1036.40644 569.502345 847 650.532268 849.30769 656.099836 1040.53636 579.467213 963.906526 770.696988 969.467026 773 1050.50117 583.594812 1131.53297 773 1137.09582 770.696988 1060.46598 579.467213 1251.69466 656.099836 1254 650.532268 1064.58887 569.502345"></polygon>
            <path d="M676.232391,653.208434 C675.62431,655.276278 673.465624,656.451511 671.412183,655.83681 L600.771936,634.692043 C598.720834,634.077343 597.551448,631.903516 598.161868,629.838027 L598.765271,627.791379 C599.378029,625.72589 601.536715,624.548302 603.585478,625.163003 L674.228064,646.307769 C676.279166,646.924825 677.448552,649.096297 676.838132,651.161786 L676.232391,653.208434 Z" id="Fill-2" fill="#CACBCA" fill-rule="nonzero"></path>
            <path d="M738,658.01607 C738,659.662532 736.255759,661 734.104843,661 L676.895157,661 C674.74189,661 673,659.662532 673,658.01607 L673,647.981675 C673,646.337468 674.74189,645 676.895157,645 L734.104843,645 C736.255759,645 738,646.337468 738,647.981675 L738,658.01607 Z" id="Fill-4" fill="#656565" fill-rule="nonzero"></path>
            <path d="M704.502202,658 C701.461569,658 699,655.535507 699,652.5011 C699,649.464493 701.461569,647 704.502202,647 C707.538431,647 710,649.464493 710,652.5011 C710,655.535507 707.538431,658 704.502202,658 Z" id="Fill-6" fill="#656565" fill-rule="nonzero"></path>
            <polygon id="Fill-12" fill="#F58434" fill-rule="nonzero" points="894.806553 276 588 602.532581 594.561653 618 608.212989 610.003255 909 292.016975"></polygon>
            <path d="M571,568.350838 C571,568.350838 581.710866,612.609256 573.843257,617 L594,612.609256 C594,612.609256 584.276442,598.937647 582.50356,566 L571,568.350838 Z" id="Fill-18" fill="#D1D1D1" fill-rule="nonzero"></path>
            <path d="M802.156122,493 L791,489.597055 C807.641508,435.295035 841.994387,386.499982 887.740352,352.206063 C935.039493,316.744284 991.401957,298 1050.73469,298 C1137.0134,298 1218.97511,339.51172 1270,409.04742 L1260.58944,415.918842 C1211.75355,349.369496 1133.30407,309.636481 1050.73469,309.636481 C935.656541,309.636481 835.760566,383.324056 802.156122,493" id="Fill-20" fill="#F58434" fill-rule="nonzero"></path>
            <g id="Group-24" transform="translate(796.000000, 314.000000)">
                <g id="Fill-22-Clipped">
                    <mask id="mask-2" fill="white">
                        <use xlink:href="#path-1"></use>
                    </mask>
                    <g id="path-1"></g>
                    <path d="M254.898219,15.792821 C122.967472,15.792821 15.6296467,123.053923 15.6296467,254.897943 C15.6296467,386.739616 122.967472,494.00541 254.898219,494.00541 C386.83366,494.00541 494.169138,386.739616 494.169138,254.897943 C494.169138,123.053923 386.83366,15.792821 254.898219,15.792821 M254.898219,509.558012 C114.381667,509.558012 0.0662606089,395.317126 0.0662606089,254.897943 C0.0662606089,114.478759 114.381667,0.24021928 254.898219,0.24021928 C395.417118,0.24021928 509.732524,114.478759 509.732524,254.897943 C509.732524,395.317126 395.417118,509.558012 254.898219,509.558012" id="Fill-22" fill="#656565" fill-rule="nonzero" mask="url(#mask-2)"></path>
                </g>
            </g>
            <path d="M1050.49765,335.728497 C921.595692,335.728497 816.72845,440.596245 816.72845,569.501174 C816.72845,698.403755 921.595692,803.273851 1050.49765,803.273851 C1179.39961,803.273851 1284.2692,698.403755 1284.2692,569.501174 C1284.2692,440.596245 1179.39961,335.728497 1050.49765,335.728497 M1050.49765,813 C916.233777,813 807,703.765697 807,569.501174 C807,435.234303 916.233777,326 1050.49765,326 C1184.76388,326 1294,435.234303 1294,569.501174 C1294,703.765697 1184.76388,813 1050.49765,813" id="Fill-25" fill="#D1D1D1" fill-rule="nonzero"></path>
            <path d="M1050.49765,357.663052 C933.691242,357.663052 838.660706,452.691242 838.660706,569.5 C838.660706,686.311103 933.691242,781.339294 1050.49765,781.339294 C1167.30876,781.339294 1262.33695,686.311103 1262.33695,569.5 C1262.33695,452.691242 1167.30876,357.663052 1050.49765,357.663052 M1050.49765,793 C927.265189,793 827,692.739501 827,569.5 C827,446.262844 927.265189,346 1050.49765,346 C1173.7395,346 1274,446.262844 1274,569.5 C1274,692.739501 1173.7395,793 1050.49765,793" id="Fill-27" fill="#F58434" fill-rule="nonzero"></path>
            <polygon id="Fill-29" fill="#F58434" fill-rule="nonzero" points="479 249.909207 877.390962 212 884 227.989566 486.890693 267"></polygon>
            <path d="M924.075073,294 C923.597674,294 923.127296,293.762929 922.848813,293.32869 C922.415878,292.650339 922.612454,291.748999 923.288769,291.314761 C987.679139,249.935315 984.089285,184.58823 984.044821,183.933351 C984.674333,112.823798 901.468823,54.2414509 900.626354,53.6569888 C899.96642,53.2016248 899.802607,52.2908967 900.256604,51.6313231 C900.717622,50.9694022 901.620936,50.7980538 902.28321,51.2604596 C903.13504,51.8519634 987.597232,111.295747 986.948999,183.846503 C986.991123,184.407493 990.740109,251.432852 924.856697,293.769971 C924.613317,293.927236 924.344195,294 924.075073,294" id="Fill-31" fill="#656565" fill-rule="nonzero"></path>
            <path d="M900.45688,224 C899.858259,224 899.297198,223.629887 899.08592,223.032553 C898.813606,222.27593 899.21034,221.444347 899.968593,221.172619 C954.10977,201.889271 972.54965,154.882597 972.73041,154.409415 C996.586051,94.2637342 962.812079,73.5631821 961.356608,72.7128595 C960.664085,72.3052669 960.434027,71.4104371 960.84015,70.7194036 C961.248621,70.0260276 962.143032,69.7941215 962.833207,70.1993716 C963.21116,70.4195653 1000.26464,92.9050921 975.448855,155.461191 C975.27279,155.927346 956.351665,204.184908 900.949862,223.91567 C900.787883,223.974233 900.621208,224 900.45688,224" id="Fill-33" fill="#656565" fill-rule="nonzero"></path>
            <polygon id="Fill-35" fill="#D1D1D1" fill-rule="nonzero" points="860 52 895 52 895 38 860 38"></polygon>
            <path d="M864,50.9292733 C864,53.1771399 862.262722,55 860.117501,55 L799.887188,55 C797.739622,55 796,53.1771399 796,50.9292733 L796,40.0731833 C796,37.8228601 797.739622,36 799.887188,36 L860.117501,36 C862.262722,36 864,37.8228601 864,40.0731833 L864,50.9292733 Z" id="Fill-37" fill="#644633" fill-rule="nonzero"></path>
            <polygon id="Fill-38" fill="#D1D1D1" fill-rule="nonzero" points="866.07314 187 841 101.467794 894.974884 32 912 36.9497533 859.784963 106.652132 881.722206 181.046221"></polygon>
            <path d="M890.770781,182.622264 C891.503411,184.673307 890.421225,186.923989 888.359804,187.651242 L865.293913,195.772233 C863.230097,196.499486 860.965167,195.427619 860.230143,193.376576 C859.495118,191.327909 860.579698,189.077228 862.643514,188.347598 L885.704616,180.228984 C887.766038,179.499354 890.035756,180.57122 890.770781,182.622264" id="Fill-39" fill="#D1D1D1" fill-rule="nonzero"></path>
            <polygon id="Fill-40" fill="#D1D1D1" fill-rule="nonzero" points="925.63142 30 962 71.7301162 894.730013 82 887 71.7277927 892.800423 61.4602324 901.168971 72.371403 940.758195 65.3126005 914.037566 35.915639"></polygon>
            <path d="M928,19 C928,29.4925727 919.718245,38 909.501155,38 C899.279446,38 891,29.4925727 891,19 C891,8.50742729 899.279446,0 909.501155,0 C919.718245,0 928,8.50742729 928,19" id="Fill-41" fill="#684633" fill-rule="nonzero"></path>
            <path d="M1048.76544,560.878382 L998.590555,490.360972 C998.590555,490.360972 985.043851,473.216206 974.722107,441.275692 L887.641152,187 L867,195.426889 L961.175402,468.323401 C961.175402,468.323401 965.691749,484.527152 980.527504,498.787861 L1038.58381,565.658548 L1040.02465,567.395083 C1039.93358,567.880843 1039.87286,568.383031 1039.87286,568.896951 C1039.87286,573.372049 1043.48313,577 1047.93643,577 C1052.38972,577 1056,573.372049 1056,568.896951 C1056,564.708147 1052.82408,561.303129 1048.76544,560.878382" id="Fill-42" fill="#F58434" fill-rule="nonzero"></path>
            <path d="M1046,567.501043 C1046,568.881936 1047.1176,570 1048.5,570 C1049.88032,570 1051,568.881936 1051,567.501043 C1051,566.122236 1049.88032,565 1048.5,565 C1047.1176,565 1046,566.122236 1046,567.501043" id="Fill-43" fill="#4E4E4E" fill-rule="nonzero"></path>
            <path d="M935.735618,306.45079 C936.523762,308.415006 935.489775,310.613549 933.431443,311.367072 L910.421022,319.747726 C908.357869,320.498952 906.048873,319.515696 905.26314,317.55148 C904.477406,315.584967 905.511393,313.384127 907.564905,312.6329 L930.577736,304.252247 C932.638479,303.50102 934.947475,304.484277 935.735618,306.45079" id="Fill-44" fill="#D1D1D1" fill-rule="nonzero"></path>
            <path d="M911,23.9292733 C911,26.1771399 909.257973,28 907.115023,28 L846.884977,28 C844.737338,28 843,26.1771399 843,23.9292733 L843,13.0731833 C843,10.8253168 844.737338,9 846.884977,9 L907.115023,9 C909.257973,9 911,10.8253168 911,13.0731833 L911,23.9292733 Z" id="Fill-45" fill="#644633" fill-rule="nonzero"></path>
            <polygon id="Fill-49" fill="#F58434" fill-rule="nonzero" points="592 612.535448 509.610192 344 491 350.15033 574.24564 626"></polygon>
            <path d="M567.370282,674.391518 C571.412744,664.685988 579.291684,647.121358 585.674888,641.273547 C586.641615,641.261771 587.594297,641.15579 588.507187,640.960313 C588.507187,640.960313 602.413538,644.434144 622.710115,663.873465 C613.333101,672.740565 600.723522,678.195068 586.868667,678.195068 C579.977521,678.195068 573.402376,676.836152 567.370282,674.391518 L567.370282,674.391518 Z M534.496895,625.501178 C534.496895,624.568542 534.522643,623.640617 534.569458,622.719758 C545.912696,624.469626 565.134873,628.08241 570.780744,633.155381 C570.443677,637.349884 568.540653,650.166553 558.056468,669.473986 C543.873909,660.034587 534.496895,643.852424 534.496895,625.501178 L534.496895,625.501178 Z M570.73627,575.376744 C573.154257,587.150087 577.103089,609.820659 573.079353,615.720283 C568.517246,616.42918 556.123015,617.43247 536.142437,612.37363 C540.613255,594.89614 553.798657,580.908967 570.73627,575.376744 L570.73627,575.376744 Z M575.478614,616.040582 C575.289014,616.219573 575.108777,616.400919 574.92854,616.591685 L574.99174,616.151274 L575.478614,616.040582 Z M627.534386,592.345524 C618.627861,598.888102 599.452498,612.241742 591.564196,611.985032 C590.112936,609.658154 583.416072,597.712887 581.068307,573.134652 C582.971331,572.925044 584.907125,572.804932 586.868667,572.804932 C603.267909,572.804932 617.925638,580.435584 627.534386,592.345524 L627.534386,592.345524 Z M600.494129,626.513888 C600.494129,626.513888 608.660979,615.089106 633.367516,601.299764 C637.112704,608.553594 639.240439,616.780096 639.240439,625.501178 C639.240439,636.768165 635.694214,647.213208 629.685528,655.788271 C620.67367,648.974853 601.959434,634.043268 600.494129,626.513888 L600.494129,626.513888 Z M586.868667,565 C558.934246,565 535.388718,584.265041 528.666106,610.286977 C528.343083,610.188061 528.036446,610.107986 527.713423,610.006715 L526,621.528057 C526,621.528057 526.313659,621.56574 526.873097,621.636394 C526.791171,622.915234 526.739675,624.201141 526.739675,625.501178 C526.739675,646.74218 537.680305,665.446698 554.187221,676.245012 C554.131043,676.334508 554.084228,676.421648 554.02805,676.513498 L555.692318,677.21533 C564.786103,682.78759 575.459888,686 586.868667,686 C620.025284,686 647,658.859373 647,625.501178 C647,592.140627 620.025284,565 586.868667,565 L586.868667,565 Z" id="Fill-57" fill="#D1D1D1" fill-rule="nonzero"></path>
            <path d="M594,624.998856 C594,629.418013 590.419788,633 586,633 C581.580212,633 578,629.418013 578,624.998856 C578,620.581987 581.580212,617 586,617 C590.419788,617 594,620.581987 594,624.998856" id="Fill-58" fill="#656565" fill-rule="nonzero"></path>
            <path d="M466.162558,264 L273.100577,547.527045 C273.100577,547.527045 268.734959,557.728137 250.288293,558.213568 C250.288293,558.213568 237.66245,557.242706 235.237107,567.931574 C235.237107,567.931574 232.809421,578.620443 243.490303,581.535375 C243.490303,581.535375 254.168842,586.87981 266.792342,574.246871 C266.792342,574.246871 276.988155,579.406044 299.805125,582.658668 L525.059726,617 L527,608.850852 L286.696557,572.302801 C286.696557,572.302801 269.220028,567.443798 281.356116,549.954201 L469.215912,273.971274 L466.162558,264 Z" id="Fill-59" fill="#F58434" fill-rule="nonzero"></path>
            <path d="M257.587676,543.900671 C233.645483,543.900671 229.058658,560.197804 228.875373,560.892251 C222.749424,590.572194 246.65637,596.624473 247.673837,596.866941 L550.531183,679.673229 C562.247325,683.279643 573.371316,685.096974 583.639977,685.096974 C613.778614,685.096974 627.379302,669.353045 627.513241,669.195323 L627.708275,668.997583 C652.4823,646.728209 645.14855,614.529426 645.066306,614.20692 C632.156461,568.234552 592.604494,567.70489 590.929081,567.70489 L265.097662,544.387961 C262.43063,544.060747 259.937484,543.900671 257.587676,543.900671 M583.639977,689 C572.983598,689 561.478938,687.123817 549.445572,683.420886 L246.710415,600.647555 C246.487184,600.593412 218.179047,593.446497 225.085133,560.002417 C225.155627,559.715222 230.522588,540 257.587676,540 C260.094921,540 262.747854,540.171846 265.473632,540.506122 L591.048921,563.806572 L591.07007,563.806572 C593.048608,563.806572 635.171265,564.5481 648.835398,613.225278 C648.93644,613.6443 656.7707,648.015878 630.401155,671.813034 C628.98892,673.444395 614.687989,689 583.639977,689" id="Fill-60" fill="#656565" fill-rule="nonzero"></path>
            <path d="M301,557.724918 C301,557.724918 301,542.359951 315.598848,542 L590.059542,553.339633 C590.059542,553.339633 632.883613,551.876303 652.349527,587.944334 C652.349527,587.944334 671.813092,616.698067 652.349527,663 L641.591244,658.127722 C641.591244,658.127722 653.808237,645.456506 648.358627,609.98604 C648.358627,609.98604 638.549328,570.638455 597.844028,565.789703 C597.844028,565.789703 569.134918,563.566476 556.969603,567.224802 L301,557.724918 Z" id="Fill-61" fill="#F58434" fill-rule="nonzero"></path>
        </g>
        <g id="Car" transform="translate(-1693.000000, 352.000000)" fill-rule="nonzero">
            <path d="M10,647.124524 C10,647.124524 19.7408814,693.632176 86.0744912,717.879012 C145.79466,739.707868 226.575252,739.62098 240.349934,731.771231 C254.124616,723.921482 273.628789,728.313071 273.628789,728.313071 C273.628789,728.313071 570.628563,689.667581 549.361469,694.136129 C519.551185,700.399543 520.143805,738.891117 539.824768,736.927438 C559.503241,734.96376 1834.24897,666.619805 1895.4482,719.457899 C1938.57749,735.00348 1920.80636,717.752404 1920.80636,717.752404 L2257.31497,686.360856 C2257.31497,686.360856 2392.54924,682.440946 2413.57582,647.124524 C2434.6024,611.808102 2441,589 2441,589 C2441,589 2347.83146,637.313579 2302.57322,643.199649 C2257.31497,649.08572 1820.4469,637.311097 1810.60642,635.349901 C1800.76593,633.388705 1342.25229,609.844423 1342.25229,609.844423 C1342.25229,609.844423 840.445002,613.769298 838.475412,601.997157 C836.508312,590.225016 486.22751,647.119559 490.161711,639.274775 C494.095911,631.427509 141.845519,629.46383 141.845519,629.46383 L10,647.124524 Z" id="Shape" fill="#222223"></path>
            <path d="M714,246.830188 C719.642594,242.607823 969.300643,34.1710986 1391.03916,15.8625849 C1812.77518,-2.44592877 2154.11605,120.079705 2156.93611,127.120294 C2159.75865,134.165853 2068.49895,219.684282 1995.6505,241.00238 C1922.79457,262.320478 716.822542,275 716.822542,275 L714,246.830188 Z" id="Shape" fill="#222223"></path>
            <path d="M906.605121,264.260233 C906.605121,264.260233 827.146425,333.792465 916.313308,264.260233 C1118.09815,106.901883 1502.27138,75.8177357 1787.48736,147.699046 C1789.4275,217.637753 1785.54722,225.408167 1785.54722,225.408167 L1824.35008,227.35077 L1828.23285,153.526856 C1828.23285,153.526856 1948.52422,178.783193 1993.15249,200.15183 C2037.78076,221.520466 2008.67363,244.8342 2008.67363,244.8342 L1073.47237,307 L906.605121,264.260233 Z" id="Shape" fill="#5CADCE"></path>
            <g id="Group" transform="translate(88.000000, 342.000000)" fill="#000000">
                <path d="M1734.31463,334.96741 C1737.73499,333.822546 1782.28441,320.119018 1790.27771,318.98162 C1798.27101,317.836755 2162.61481,302.99583 2161.46971,302.99583 C2160.33208,302.99583 2208.29688,322.408746 2208.29688,322.408746 C2208.29688,322.408746 2236.84973,293.861804 2236.84973,290.434677 C2236.84973,287.007551 2176.32118,51.7802456 2176.32118,51.7802456 L1889.63764,16.381539 C1889.63764,16.381539 1730.88679,75.7576864 1726.31634,81.4670749 C1721.7459,87.1764634 1665.78281,218.497377 1665.78281,218.497377 L1734.31463,334.96741 Z" id="Shape"></path>
            </g>
            <g id="Group">
                <path d="M2464.39385,449.469864 C2445.37529,424.479851 2436.23821,370.790411 2439.88059,347.635191 C2443.52298,324.487439 2436.63905,294.742403 2436.63905,294.742403 C2436.63905,294.742403 2426.21979,245.601354 2416.53748,235.827417 C2406.84521,226.04601 2420.83465,223.526595 2434.71951,216.030587 C2448.60936,208.5296 2436.71125,201.055998 2427.65135,200.769701 C2418.59643,200.483404 2401.74139,199.248591 2401.74139,199.248591 C2376.00571,197.398862 2312.38477,168.204016 2123.09792,102.786348 C1933.82352,37.3861067 1731.92651,-14.9440443 1360.8243,4.78058877 C989.712126,24.5102009 759.579807,213.331924 707.528351,241.160013 C655.476894,268.995571 622.456448,252.084119 622.456448,252.084119 C622.456448,252.084119 622.456448,252.084119 600.290948,253.662488 C554.705155,252.171253 538.400329,254.807677 435.98292,275.391202 C297.084429,281.470661 189.179795,320.850219 139.613026,356.816618 C63.9894072,373.40194 9.90638282,417.623656 9.90638282,417.623656 C-3.96105933,431.139374 2.00169183,428.806674 0.126972989,439.18308 C-1.74774585,449.561977 17.7314045,524.163561 17.7314045,524.163561 C17.7314045,524.163561 2.05397482,570.994316 12.9935692,575.443126 C23.9331636,579.886956 27.1423437,585.515808 36.3565992,608.60879 C-20.4675479,639.133052 12.4184563,656.099274 37.5043355,670.625745 C62.5927043,685.147238 128.576334,702.546639 162.057369,695.715339 C141.096867,624.758443 155.658926,545.912191 169.566203,515.146444 C183.475969,484.390655 223.400261,378.692214 386.284199,379.810018 C611.91769,391.142408 626.626639,626.61813 625.583469,654.035444 C625.956919,674.203216 630.485622,682.590479 630.485622,682.590479 C630.485622,682.590479 637.160418,687.728892 652.890131,684.806171 C692.169598,674.865433 1681.17217,665.738776 1681.17217,665.738776 C1681.17217,665.738776 1769.30636,665.425094 1802.41893,677.962422 C1835.54145,690.50473 1832.88995,662.564612 1835.48668,631.744094 C1838.0834,600.916109 1863.07467,386.833013 2064.93185,386.260419 C2286.43996,396.183729 2287.7321,612.494964 2285.80261,630.180663 C2283.86565,647.871341 2277.05641,671.526959 2326.18251,660.209506 C2375.3086,648.889563 2410.7266,630.581479 2410.7266,630.581479 C2410.7266,630.581479 2442.5296,587.898299 2449.48324,572.385969 C2456.43688,556.868661 2452.25673,551.058072 2452.25673,551.058072 C2452.25673,551.058072 2460.72408,519.674919 2471.11595,494.134718 C2481.49786,468.611944 2480.0663,464.56395 2464.39385,449.469864 Z M2098.19877,138.722871 C2094.06094,144.448816 2049.0179,192.621433 1921.98765,201.339806 C1794.9574,210.053199 1293.81243,240.532649 1293.81243,240.532649 C1293.81243,240.532649 1123.31012,246.034535 968.310953,248.972193 L834.449057,251.59119 C797.557179,252.228512 776.337752,252.696546 763.344183,251.782885 C763.344183,251.782885 1010.05021,66.3220413 1274.5698,40.926234 C1505.18512,16.8722892 1701.50777,9.69743217 2022.78179,111.146226 C2096.73485,135.922138 2102.32913,132.989459 2098.19877,138.722871 Z" id="Shape" fill="#DBDADB"></path>
                <path d="M1814.09795,289.539263 C1816.07724,288.506103 1864.95686,288.598216 1877.65914,287.652191 C1890.36141,286.711144 1894.55899,284.517859 1898.75159,281.612564 C1902.93921,278.714739 1907.93348,281.448255 1918.5295,281.244112 C1929.12552,281.052418 1927.1786,290.271188 1918.05646,293.978114 C1908.94179,297.680062 1812.87304,299.457594 1812.87304,299.457594 C1812.87304,299.457594 1802.90192,295.404621 1814.09795,289.539263 Z" id="Shape" fill="#797A7D"></path>
                <path d="M752.449403,588.403676 C748.909097,589.135601 1064.46436,579.10773 1393.9991,568.616804 C1621.8484,560.88678 1768.78851,539.748087 1768.78851,539.748087 C1768.78851,539.748087 1668.93546,498.633318 1429.85777,516.219436 C1190.78008,533.803064 859.024554,566.259209 752.449403,588.403676 Z" id="Shape" fill="#FFFFFF"></path>
                <path d="M2285.29471,248.145665 C2285.61339,248.140686 2286.57191,248.128238 2288.07816,248.100854 C2307.49258,247.809577 2417.47857,246.253614 2419.03462,246.226229 C2420.71763,246.193865 2446.61265,284.336122 2439.07643,330.93535 C2411.16976,335.364243 2393.65745,326.737984 2356.8552,303.908893 C2320.0405,281.084782 2286.57191,248.128238 2286.57191,248.128238" id="Shape" fill="#F36C28"></path>
                <path d="M1679.17048,273.817812 C1672.74714,275.249298 1740.84698,266.100235 1826.22761,259.251507 C1911.60076,252.412738 2299.4161,239.965034 2375.72936,241.17993 C2351.85844,233.357792 2330.03651,229.255028 2298.1887,212.49046 C2258.60798,191.645533 1999.04282,215.276256 1968.94525,223.725758 C1938.85514,232.17526 1780.94804,251.247633 1679.17048,273.817812 Z" id="Shape" fill="#FFFFFF"></path>
                <g opacity="0.3" transform="translate(130.601181, 13.586574)" id="Shape">
                    <path d="M2288.33634,322.815808 C2288.25418,323.388402 2280.39181,380.229601 2275.26559,401.286139 C2270.42568,421.177571 2263.82308,429.485169 2213.23804,437.83011 C2164.66216,445.851411 2111.59243,449.080346 2108.33594,448.261287 L2107.85295,449.511037 L2107.13343,450.638799 C2107.51933,450.885263 2109.09778,451.002272 2111.64471,451.002272 C2126.5852,451.002272 2174.9146,446.877102 2213.67622,440.478982 C2263.29278,432.293371 2272.38007,424.493639 2277.86978,401.923461 C2283.03086,380.739957 2290.91812,323.759344 2290.99032,323.189239 L2288.33634,322.815808 Z" fill="#B6B8BA"></path>
                    <path d="M2006.00567,123.941318 C2002.70438,129.346111 1971.80015,173.829229 1841.96902,192.219468 C1840.49016,188.863567 1839.29512,185.930887 1838.45361,183.852121 C1837.78887,182.211513 1837.32081,181.078772 1837.08429,180.628165 L1834.71413,181.872936 C1834.92824,182.291179 1835.35149,183.341765 1835.96892,184.857895 C1836.76562,186.809695 1837.86107,189.513337 1839.21545,192.597878 C1829.0601,193.994511 1818.33213,195.236792 1806.95684,196.279909 C1712.73292,204.946001 1477.38475,220.19444 1273.9566,232.428044 C1274.7259,229.126913 1275.41305,226.278878 1275.9807,223.978542 L1276.20975,223.032516 L1273.59809,222.432537 L1273.37651,223.341219 C1272.76405,225.828271 1272.01466,228.935218 1271.1607,232.599822 C1115.05364,241.977923 978.258913,249.558575 939.320529,250.972635 C846.662613,254.350942 812.076167,253.360104 811.876993,253.350146 L811.784876,254.231444 L811.764958,253.340188 L810.93092,253.362594 L810.18651,254.726862 L810.597305,255.39157 C810.724278,255.595712 810.833823,255.76998 811.819731,255.909394 L811.822221,256.018934 L811.819731,255.909394 C813.261248,256.101089 816.579973,256.213118 824.596699,256.213118 C828.734525,256.213118 834.127142,256.185733 841.16045,256.125984 C859.646223,255.956696 891.700679,255.399038 939.420116,253.661339 C978.301237,252.2423 1114.725,244.689033 1270.5358,235.32587 C1262.09085,272.083942 1244.86733,357.325824 1241.12786,455.050265 C1237.00497,562.762744 1242.43244,610.532056 1243.90881,621.127543 C1160.1166,622.750723 1088.84492,624.07018 1087.30381,624.102544 L494.683528,637.204998 L494.74328,639.888723 L1087.36108,626.778801 C1090.69474,626.711583 1421.66353,620.572375 1497.76765,618.466223 C1575.88841,616.297833 1584.45286,611.836576 1650.60081,538.900494 C1717.57781,465.038303 1850.86709,285.467714 1867.44827,262.00628 C1882.79706,240.31491 1879.65012,236.453632 1867.41092,227.521159 C1866.03663,226.515384 1864.55029,225.429944 1862.97682,224.220027 C1854.73603,217.866719 1847.76496,204.916127 1843.11676,194.7588 C1973.5454,176.077284 2004.93512,130.837346 2008.29119,125.33795 L2007.23557,124.501464 L2006.00567,123.941318 Z M1861.34111,226.341116 C1862.93699,227.573439 1864.43826,228.673816 1865.83496,229.692038 C1876.85423,237.728277 1879.81444,239.891688 1865.26234,260.465254 C1848.69112,283.904282 1715.51886,463.32301 1648.61156,537.105535 C1583.1906,609.239984 1574.73071,613.65643 1497.69296,615.792456 C1457.07654,616.915239 1343.86394,619.185701 1246.61259,621.072773 C1245.24078,611.48555 1239.63655,564.127013 1243.80674,455.154826 C1247.56613,356.947414 1264.96392,271.384381 1273.31924,235.154091 C1476.96898,222.908039 1712.835,207.627237 1807.20332,198.953676 C1818.90475,197.875705 1829.92401,196.593591 1840.34825,195.147168 C1845.106,205.65801 1852.45052,219.497368 1861.34111,226.341116 Z" fill="#FFFFFF"></path>
                    <path d="M974.658855,53.1337935 C1170.89934,-5.03931006 1366.76887,1.62270155 1471.98965,5.20017191 L1485.50854,5.65326836 C1487.71438,5.74040229 1709.71296,15.5218087 1979.52309,109.98993 C1980.83266,110.582441 1982.14222,111.172462 1983.45178,111.762483 L1984.84849,113.709304 C1985.19953,113.450392 1985.50825,113.131731 1985.84933,112.842944 C2131.71391,178.604168 2260.98735,235.154091 2262.29692,235.731665 L2263.36996,233.271998 C2262.0604,232.699404 2133.36954,176.403414 1987.8087,110.794052 C1991.16975,106.621581 1993.05194,100.781118 1994.37644,96.6011787 C1994.88682,95.0053829 1995.52169,93.0137502 1995.84534,92.6303609 L1994.86691,91.7092307 L1993.9034,90.7781424 C1993.20381,91.5025988 1992.73824,92.9141685 1991.82453,95.7895883 C1990.50501,99.962059 1988.59046,105.897125 1985.28418,109.651352 C1983.69328,108.941833 1982.10985,108.224845 1980.51896,107.505368 C1710.20342,12.8530208 1487.8289,3.06414576 1485.60563,2.97701183 L1472.07927,2.52391537 C1366.70912,-1.06351315 1170.55577,-7.73299338 973.897017,50.5670768 C770.570937,110.846332 614.638148,238.126603 613.087086,239.403738 L614.790017,241.472546 C616.33859,240.192922 771.848136,113.258697 974.658855,53.1337935 Z" fill="#FFFFFF"></path>
                </g>
                <g transform="translate(130.601181, 12.447705)" id="Shape">
                    <path d="M2288.19941,322.568003 C2288.11725,323.135618 2280.2499,379.981796 2275.12368,401.033355 C2270.28377,420.929766 2263.68615,429.237364 2213.09613,437.582306 C2164.52025,445.596138 2111.4555,448.83752 2108.19403,448.010993 L2107.71602,449.253274 L2106.98903,450.381036 C2107.37991,450.6275 2108.95338,450.754467 2111.50529,450.754467 C2126.44578,450.754467 2174.77518,446.624318 2213.53182,440.221219 C2263.14838,432.040587 2272.23567,424.240856 2277.72538,401.670677 C2282.88646,380.479705 2290.76874,323.50656 2290.8509,322.936455 L2288.19941,322.568003 Z" fill="#A9ABAE"></path>
                    <path d="M2005.86874,123.691023 C2002.56246,129.095817 1971.66072,173.581424 1841.83209,191.971663 C1840.35323,188.613272 1839.15819,185.683083 1838.3117,183.604316 C1837.64696,181.963708 1837.18388,180.830967 1836.94238,180.38036 L1834.57222,181.622641 C1834.79131,182.040884 1835.21704,183.09147 1835.82701,184.61009 C1836.61873,186.561891 1837.72414,189.263042 1839.07354,192.347584 C1828.92317,193.744216 1818.19768,194.988987 1806.81991,196.032104 C1712.58852,204.698196 1477.24533,219.946635 1273.81718,232.180239 C1274.58648,228.879108 1275.27363,226.031073 1275.84127,223.730737 L1276.07032,222.779732 L1273.45866,222.184732 L1273.23957,223.085946 C1272.62712,225.577976 1271.87773,228.679945 1271.02377,232.349528 C1114.91421,241.727629 978.119491,249.308281 939.183598,250.72234 C846.525681,254.100647 811.939235,253.10981 811.737572,253.099852 L811.645454,253.981149 L811.625537,253.084915 L810.791499,253.10732 L810.047088,254.476568 L810.457883,255.136296 C810.587346,255.345418 810.696891,255.522175 811.68031,255.654121 L811.685289,255.76864 L811.68031,255.654121 C813.121826,255.853284 816.443042,255.962824 824.457278,255.962824 C828.595103,255.962824 833.987721,255.935439 841.021029,255.87569 C859.506802,255.706401 891.561258,255.143765 939.283184,253.406065 C978.161816,251.992006 1114.58807,244.43376 1270.39637,235.078065 C1261.95143,271.828668 1244.73289,357.07802 1240.99341,454.797481 C1236.87053,562.514939 1242.298,610.289231 1243.77437,620.879738 C1159.98216,622.502918 1088.71048,623.822375 1087.16937,623.84976 L494.549086,636.959683 L494.608838,639.638429 L1087.22414,626.528506 C1090.55781,626.468757 1421.52162,620.329549 1497.63072,618.223398 C1575.74152,616.055007 1584.31842,611.59375 1650.45392,538.657668 C1717.44337,464.788009 1850.72767,285.219909 1867.31382,261.758475 C1882.65764,240.074573 1879.51568,236.213295 1867.27399,227.278333 C1865.89969,226.272558 1864.41336,225.187119 1862.83491,223.972223 C1854.59412,217.623893 1847.62305,204.675791 1842.97484,194.515974 C1973.40349,175.834459 2004.78823,130.59452 2008.15426,125.095124 L2007.09864,124.258639 L2005.86874,123.691023 Z M1861.19173,226.093311 C1862.79259,227.325634 1864.30133,228.426011 1865.69305,229.436765 C1876.71231,237.480472 1879.67253,239.641393 1865.12043,260.209981 C1848.55668,283.653988 1715.37197,463.067736 1648.46965,536.850262 C1583.05367,608.98969 1574.5888,613.401157 1497.55354,615.542162 C1456.93712,616.664945 1343.72452,618.935406 1246.46819,620.822478 C1245.09638,611.235256 1239.49712,563.871739 1243.66732,454.904532 C1247.42671,356.689651 1264.8245,271.129107 1273.17982,234.903797 C1476.82707,222.657745 1712.69807,207.376943 1807.05892,198.703382 C1818.76035,197.625411 1829.78459,196.340807 1840.20385,194.894384 C1844.96907,205.410205 1852.3086,219.249563 1861.19173,226.093311 Z" fill="#B6B8BA"></path>
                    <path d="M974.516944,52.8859887 C1170.75992,-5.28711487 1366.62447,1.37489674 1471.84774,4.94987756 L1485.36413,5.40546355 C1487.57496,5.4876184 1709.57852,15.2715144 1979.38118,109.739636 C1980.69572,110.329657 1982.00529,110.924657 1983.30987,111.512189 L1984.70658,113.45652 C1985.05762,113.202587 1985.37132,112.883926 1985.70244,112.59265 C2131.57449,178.353874 2260.84793,234.903797 2262.15501,235.476391 L2263.22805,233.024193 C2261.92347,232.451599 2133.23261,176.155609 1987.6643,110.546247 C1991.02037,106.373776 1992.91252,100.533313 1994.23951,96.3508843 C1994.74491,94.7525991 1995.37729,92.7659454 1995.70343,92.3825561 L1994.72997,91.4589364 L1993.76647,90.5253585 C1993.06688,91.2498149 1992.59882,92.6613846 1991.68262,95.539294 C1990.3631,99.7117646 1988.45352,105.64683 1985.14227,109.401058 C1983.55137,108.68656 1981.96794,107.972062 1980.37705,107.255074 C1710.06151,12.6002369 1487.68699,2.81385141 1485.46372,2.72671748 L1471.93985,2.27113148 C1366.56472,-1.31629704 1170.41137,-7.98328773 973.757596,50.3167825 C770.431516,110.596038 614.498726,237.876309 612.947664,239.153443 L614.653086,241.222252 C616.196679,239.945117 771.708715,113.005913 974.516944,52.8859887 Z" fill="#B6B8BA"></path>
                </g>
                <g transform="translate(1851.529963, 388.937824)" id="Shape">
                    <path d="M426.036826,207.636525 C423.880775,91.0811963 326.855984,-1.63926724 209.331279,0.544060184 C91.8040843,2.71742944 -1.72272573,98.9655725 0.43830475,215.523391 C2.5943559,332.078719 99.6266163,424.791714 217.153811,422.618345 C334.671047,420.435018 428.197857,324.189364 426.036826,207.636525 Z" fill="#222223"></path>
                    <path d="M373.009421,208.614915 C371.381179,121.110039 298.538518,51.4950055 210.299759,53.1331234 C122.06598,54.7712414 51.8524067,127.030168 53.4756692,214.535043 C55.0989317,302.044897 127.939103,371.659931 216.175372,370.024303 C304.409151,368.386185 374.627704,296.11979 373.009421,208.614915 Z" fill="url(#linearGradient-3)"></path>
                    <path d="M170.119032,203.994326 C173.370537,202.29397 175.613726,190.356621 168.109871,184.339401 C160.610996,178.32218 123.25853,155.625035 112.966249,153.760369 C102.673968,151.905661 89.5310188,151.328087 90.3177534,149.261768 C90.9675563,147.529048 90.6090444,137.433959 91.1916263,133.74446 C87.9451013,141.265363 69.2128509,179.088959 67.0144754,198.111541 C66.5190318,202.368656 116.359664,203.765289 134.422195,204.250749 C152.487214,204.73621 166.867528,205.699662 170.119032,203.994326 Z M91.6497249,132.410066 C91.4580206,132.54699 91.3086406,133.03743 91.194116,133.74197 C91.5999316,132.810882 91.7816773,132.315463 91.6497249,132.410066 Z M252.927828,199.587839 L252.955214,201.225957 C263.655801,202.67238 268.759617,212.421423 288.873632,212.87203 C308.992627,213.322636 352.203278,197.750558 352.203278,197.750558 C352.203278,197.750558 352.203278,197.750558 359.744478,206.227445 C360.712958,192.256141 345.882015,144.934946 344.654609,144.952373 C343.422224,144.974779 330.027819,152.610201 312.537912,161.141858 C295.050495,169.673515 257.005902,198.27834 252.927828,199.587839 Z M217.099038,170.2959 C227.244429,164.370793 233.261953,157.28058 236.585658,137.115298 C239.909362,116.942548 243.439709,86.1021143 243.439709,86.1021143 C243.439709,86.1021143 242.047986,77.5156876 245.717754,76.2111681 C249.387522,74.9141173 257.605911,75.5788247 258.838296,75.5564188 C260.070681,75.534013 222.870085,61.4457007 184.91263,72.008823 C180.951571,73.104221 206.620032,158.597547 207.934576,163.078721 C209.24912,167.577321 206.943689,176.230966 217.099038,170.2959 Z M182.440392,248.903156 C177.89675,247.347193 168.56548,253.264832 157.267374,263.320088 C145.966778,273.375343 115.876669,310.865341 115.876669,310.865341 C122.626155,320.997773 156.244121,340.894184 156.244121,340.894184 C156.244121,340.894184 185.559944,262.38402 188.72431,255.76682 C191.886186,249.147131 186.984033,250.461608 182.440392,248.903156 Z M264.773661,218.655233 C254.023281,214.343348 233.769845,206.508763 236.149966,202.361188 C238.542535,198.213612 241.316024,192.828735 250.684639,188.959989 C260.048274,185.098711 264.801047,175.977033 268.416043,171.807051 C272.031039,167.63707 325.68833,117.821356 325.68833,117.821356 C325.68833,117.821356 293.972469,89.2688104 281.591358,85.3950847 C264.604364,121.0005 238.796481,167.841213 229.92331,176.218518 C221.055118,184.585865 208.997664,198.348048 205.942843,188.561662 C202.890512,178.770297 196.770912,158.774304 184.641257,146.276809 C172.506622,133.784292 157.344554,90.5733299 157.344554,90.5733299 L168.956358,74.7597657 C168.956358,74.7597657 125.414581,94.8528508 108.915562,112.394156 C132.696856,133.291363 178.143227,172.245211 184.232951,190.600596 C190.312717,208.951003 194.906151,212.974101 185.878621,213.13841 C176.85607,213.30272 153.906324,214.958265 153.906324,214.958265 C153.906324,214.958265 133.585667,225.596073 109.391088,226.04917 C85.1790818,226.494798 68.8369112,230.082226 68.8568286,231.30708 C68.8792356,232.534424 85.1965095,271.630175 88.6173112,279.352731 C122.295029,258.629792 156.470681,242.407943 162.978669,239.410536 C169.486657,236.418108 182.953263,232.071369 193.641401,233.507835 C204.341987,234.949279 209.659915,234.030638 207.708016,239.405557 C206.811736,241.875182 197.129424,266.272683 198.185042,279.387585 C199.253109,292.497508 191.908593,338.997154 191.116879,340.652698 C190.325165,342.313222 188.042141,351.793394 188.042141,351.793394 L237.713476,352.931114 C237.713476,352.931114 219.917341,278.16771 222.633567,269.909902 C225.352282,261.647116 229.709199,230.796724 233.411333,231.132812 C237.108487,231.47388 257.506325,247.103218 259.981053,248.290729 C262.46823,249.468282 272.255109,246.00782 282.223733,252.383534 C292.187378,258.764228 334.842834,279.723673 338.161559,281.302042 C341.467836,282.880411 358.873094,247.680791 360.332039,237.812251 C338.935845,234.518588 275.516572,222.972097 264.773661,218.655233 Z M242.272056,247.528929 C241.067057,247.919787 230.52083,257.656382 237.937546,274.032582 C245.359242,290.413762 275.952263,337.107592 275.952263,337.107592 C275.952263,337.107592 302.183389,326.711269 320.962943,311.886053 C298.52358,293.744768 260.00346,258.383328 253.567672,253.92705 C253.567672,253.92705 244.804046,246.714849 242.272056,247.528929 Z" fill="#414042"></path>
                </g>
            </g>
        </g>
    </g>
</svg>